<svg width="25" height="11" viewBox="0 0 25 11" fill="none" xmlns="http://www.w3.org/2000/svg">
<path fill-rule="evenodd" clip-rule="evenodd" d="M4.56809 1.37902C4.27509 1.74032 3.80628 2.02528 3.33748 1.98457C3.27888 1.49606 3.5084 0.977021 3.77698 0.656436C4.06999 0.284964 4.58274 0.0203546 4.99783 0C5.04666 0.508865 4.85621 1.00755 4.56809 1.37902ZM4.99283 2.08124C4.57982 2.05647 4.20297 2.21067 3.89857 2.33522C3.70269 2.41537 3.53681 2.48324 3.41061 2.48324C3.26899 2.48324 3.09627 2.41174 2.90234 2.33146C2.64822 2.22627 2.3577 2.106 2.05304 2.11177C1.35471 2.12195 0.705225 2.53413 0.348739 3.19057C-0.383767 4.50344 0.158287 6.4473 0.866376 7.51591C1.2131 8.04513 1.62818 8.62524 2.17512 8.60488C2.41574 8.59542 2.58883 8.51889 2.76796 8.43968C2.97418 8.3485 3.18842 8.25377 3.52293 8.25377C3.84585 8.25377 4.05071 8.34603 4.24737 8.43459C4.43436 8.5188 4.61393 8.59967 4.88051 8.59471C5.44698 8.58453 5.80347 8.06549 6.15019 7.53627C6.52436 6.96827 6.68878 6.41393 6.71373 6.32981L6.71666 6.32008C6.71666 6.32008 6.71144 6.31725 6.70328 6.31336C6.5782 6.25369 5.62218 5.79763 5.61302 4.57468C5.60381 3.54818 6.3713 3.0281 6.49212 2.94623C6.49947 2.94125 6.50443 2.93789 6.50667 2.93613C6.01834 2.18301 5.25653 2.1016 4.99283 2.08124ZM8.91427 8.53873V0.605534H11.771C13.2458 0.605534 14.2762 1.66397 14.2762 3.21092C14.2762 4.75787 13.2263 5.82648 11.732 5.82648H10.096V8.53873H8.91427ZM10.0958 1.64364H11.4583C12.4838 1.64364 13.0698 2.21357 13.0698 3.21603C13.0698 4.21849 12.4838 4.79351 11.4534 4.79351H10.0958V1.64364ZM18.1779 7.58717C17.8654 8.20798 17.1768 8.5998 16.4345 8.5998C15.3358 8.5998 14.5691 7.91793 14.5691 6.89002C14.5691 5.87229 15.3114 5.2871 16.6836 5.20059L18.1584 5.109V4.67137C18.1584 4.02512 17.7531 3.674 17.0303 3.674C16.4345 3.674 15.9999 3.99458 15.912 4.48309H14.8475C14.8816 3.45519 15.8095 2.70716 17.0645 2.70716C18.4172 2.70716 19.2962 3.44501 19.2962 4.58996V8.53874H18.2023V7.58717H18.1779ZM16.752 7.65841C16.1221 7.65841 15.7216 7.34291 15.7216 6.85949C15.7216 6.3608 16.1074 6.07075 16.8448 6.02495L18.1584 5.93844V6.38624C18.1584 7.12919 17.5529 7.65841 16.752 7.65841ZM22.9246 8.84915C22.4509 10.2383 21.9088 10.6963 20.7563 10.6963C20.6684 10.6963 20.3754 10.6861 20.3071 10.6658V9.71422C20.3803 9.72439 20.561 9.73457 20.6538 9.73457C21.1763 9.73457 21.4693 9.50558 21.65 8.91021L21.7574 8.55909L19.7553 2.78348H20.9907L22.3825 7.47012H22.4069L23.7987 2.78348H25L22.9246 8.84915Z" fill="#8B8D98"/>
</svg>
