<svg width="14" height="14" viewBox="0 0 14 14" fill="none" xmlns="http://www.w3.org/2000/svg">
<path d="M12.3594 4.81688C12.3375 4.76219 12.3145 4.7075 12.291 4.65281C11.9382 3.83908 11.3672 3.13879 10.6411 2.62938H11.8125C11.9285 2.62938 12.0398 2.58328 12.1219 2.50123C12.2039 2.41919 12.25 2.30791 12.25 2.19188C12.25 2.07584 12.2039 1.96456 12.1219 1.88252C12.0398 1.80047 11.9285 1.75438 11.8125 1.75438H6.125C4.91537 1.75591 3.75055 2.2123 2.86184 3.03293C1.97314 3.85355 1.42555 4.97838 1.32781 6.18406C0.949901 6.27801 0.614119 6.49531 0.373618 6.80158C0.133118 7.10785 0.00164146 7.48559 0 7.875C0 7.99103 0.0460936 8.10231 0.128141 8.18436C0.210188 8.26641 0.321468 8.3125 0.4375 8.3125C0.553532 8.3125 0.664812 8.26641 0.746859 8.18436C0.828906 8.10231 0.875 7.99103 0.875 7.875C0.875102 7.71546 0.91882 7.55899 1.00142 7.4225C1.08403 7.28602 1.20238 7.17471 1.34367 7.10062C1.45257 8.08219 1.86186 9.00619 2.51562 9.74641L3.2025 11.6692C3.26322 11.8393 3.37508 11.9864 3.52274 12.0904C3.67039 12.1944 3.8466 12.2501 4.02719 12.25H4.72281C4.90331 12.25 5.0794 12.1942 5.22694 12.0902C5.37448 11.9863 5.48626 11.8392 5.54695 11.6692L5.65195 11.375H8.78555L8.89055 11.6692C8.95124 11.8392 9.06302 11.9863 9.21056 12.0902C9.3581 12.1942 9.53419 12.25 9.71469 12.25H10.4103C10.5908 12.25 10.7669 12.1942 10.9144 12.0902C11.062 11.9863 11.1738 11.8392 11.2345 11.6692L12.1209 9.1875H12.25C12.5981 9.1875 12.9319 9.04922 13.1781 8.80308C13.4242 8.55694 13.5625 8.2231 13.5625 7.875V6.125C13.5625 5.7958 13.4389 5.47861 13.216 5.23631C12.9932 4.99402 12.6874 4.84431 12.3594 4.81688ZM8.3125 3.9375H6.125C6.00897 3.9375 5.89769 3.89141 5.81564 3.80936C5.73359 3.72731 5.6875 3.61603 5.6875 3.5C5.6875 3.38397 5.73359 3.27269 5.81564 3.19064C5.89769 3.10859 6.00897 3.0625 6.125 3.0625H8.3125C8.42853 3.0625 8.53981 3.10859 8.62186 3.19064C8.70391 3.27269 8.75 3.38397 8.75 3.5C8.75 3.61603 8.70391 3.72731 8.62186 3.80936C8.53981 3.89141 8.42853 3.9375 8.3125 3.9375ZM9.84375 7C9.71396 7 9.58708 6.96151 9.47916 6.8894C9.37124 6.81729 9.28712 6.7148 9.23745 6.59489C9.18778 6.47497 9.17479 6.34302 9.20011 6.21572C9.22543 6.08842 9.28793 5.97149 9.37971 5.87971C9.47149 5.78793 9.58842 5.72543 9.71572 5.70011C9.84302 5.67479 9.97497 5.68778 10.0949 5.73745C10.2148 5.78712 10.3173 5.87124 10.3894 5.97916C10.4615 6.08708 10.5 6.21396 10.5 6.34375C10.5 6.5178 10.4309 6.68472 10.3078 6.80779C10.1847 6.93086 10.0178 7 9.84375 7Z" fill="#E9F9EE"/>
</svg>
