<svg width="15" height="13" viewBox="0 0 15 13" fill="none" xmlns="http://www.w3.org/2000/svg">
<path d="M7.22399 9.89908V2.87625C9.168 3.37393 10.3899 5.30936 9.89006 7.24478C9.5568 8.57193 8.55702 9.56729 7.22399 9.89908Z" fill="#0079BE"/>
<path d="M2.94706 5.47525C2.44717 7.41067 3.61357 9.4014 5.55758 9.89908V2.87625C4.28009 3.20804 3.28031 4.2034 2.94706 5.47525Z" fill="#0079BE"/>
<path fill-rule="evenodd" clip-rule="evenodd" d="M6.22418 12.7193H8.50144C12.0562 12.7193 14.8889 9.8991 15 6.41533V6.36004C14.9444 2.82097 12.0562 -0.0545134 8.50144 0.000784431H5.94646C2.55833 0.11138 -0.107737 2.98687 0.00334921 6.41533C0.00334921 9.8438 2.7805 12.664 6.22418 12.7193ZM1.11427 6.36001C1.11427 3.48452 3.50262 1.10672 6.39086 1.10672C9.2791 1.10672 11.6675 3.48452 11.6675 6.36001C11.6675 9.2355 9.2791 11.6133 6.39086 11.6133C3.50262 11.6133 1.11427 9.2355 1.11427 6.36001Z" fill="#0079BE"/>
</svg>
