<svg width="19" height="12" viewBox="0 0 19 12" fill="none" xmlns="http://www.w3.org/2000/svg">
<path d="M9.49998 10.0272C8.49377 10.8754 7.18853 11.3874 5.76227 11.3874C2.57986 11.3874 0 8.83824 0 5.6937C0 2.54916 2.57986 0 5.76227 0C7.18853 0 8.49377 0.512015 9.49998 1.36017C10.5062 0.512015 11.8114 0 13.2377 0C16.4201 0 19 2.54916 19 5.6937C19 8.83824 16.4201 11.3874 13.2377 11.3874C11.8114 11.3874 10.5062 10.8754 9.49998 10.0272Z" fill="#ED0006"/>
<path d="M9.5 10.0272C10.7389 8.98287 11.5245 7.42894 11.5245 5.6937C11.5245 3.95846 10.7389 2.40452 9.5 1.36019C10.5062 0.512024 11.8115 0 13.2377 0C16.4202 0 19 2.54916 19 5.6937C19 8.83824 16.4202 11.3874 13.2377 11.3874C11.8115 11.3874 10.5062 10.8754 9.5 10.0272Z" fill="#F9A000"/>
<path d="M9.50001 10.0272C10.739 8.98292 11.5246 7.42897 11.5246 5.69372C11.5246 3.95847 10.739 2.40452 9.50001 1.36019C8.26106 2.40452 7.47545 3.95847 7.47545 5.69372C7.47545 7.42897 8.26106 8.98292 9.50001 10.0272Z" fill="#FF5E00"/>
</svg>
