<svg width="190" height="48" viewBox="0 0 190 48" fill="none" xmlns="http://www.w3.org/2000/svg">
<path d="M18.348 39.0853C19.2693 39.0853 20.1694 38.9931 21.034 38.8089C21.9199 38.6246 22.7988 38.3907 23.6634 38.1143V44.4007C22.7562 44.8047 21.6365 45.1378 20.2828 45.4C18.9504 45.6764 17.4975 45.8182 15.9099 45.8182C14.0672 45.8182 12.4017 45.5205 10.9275 44.9323C9.46755 44.3228 8.31941 43.2809 7.46893 41.8068C6.63972 40.3114 6.22157 38.2348 6.22157 35.5771V20.6442L2.18182 21.4096V15.0665L6.22157 14.3507V7.71697L14.6625 6.22864V12.8694L23.3303 11.3386V17.6817L14.6625 19.2125V35.57C14.6625 36.7535 14.9956 37.6395 15.6618 38.2277C16.3422 38.8018 17.2423 39.0853 18.348 39.0853Z" fill="white" stroke="white" stroke-width="0.708728" stroke-linejoin="round"/>
<path d="M151.076 39.0853C151.997 39.0853 152.897 38.9931 153.762 38.8089C154.648 38.6246 155.526 38.3907 156.391 38.1143V44.4007C155.484 44.8047 154.364 45.1378 153.01 45.4C151.678 45.6764 150.225 45.8182 148.638 45.8182C146.795 45.8182 145.129 45.5205 143.655 44.9323C142.195 44.3228 141.047 43.2809 140.197 41.8068C139.367 40.3114 138.949 38.2348 138.949 35.5771V20.6442L134.909 21.4096V15.0665L138.949 14.3507V7.71697L147.39 6.22864V12.8694L156.058 11.3386V17.6817L147.39 19.2125V35.57C147.39 36.7535 147.723 37.6395 148.389 38.2277C149.07 38.8018 149.97 39.0853 151.076 39.0853Z" fill="white" stroke="white" stroke-width="0.708728" stroke-linejoin="round"/>
<path d="M36.713 21.3956V45.2583H28.272V22.8131L36.713 21.3956Z" fill="white" stroke="white" stroke-width="0.708728" stroke-linejoin="round"/>
<path d="M32.4927 18.3232C35.031 18.3232 37.0888 16.2654 37.0888 13.727C37.0888 11.1886 35.031 9.13086 32.4927 9.13086C29.9543 9.13086 27.8965 11.1886 27.8965 13.727C27.8965 16.2654 29.9543 18.3232 32.4927 18.3232Z" fill="white" stroke="white" stroke-width="0.708728" stroke-linejoin="round"/>
<path d="M56.9899 45.811C53.9282 45.811 51.313 45.2582 49.1585 44.1526C46.9968 43.0257 45.3597 41.2894 44.2328 38.9506C43.1059 36.6047 42.546 33.6067 42.546 29.9497C42.546 26.2927 43.1839 23.0821 44.4596 20.7008C45.7495 18.2982 47.5355 16.5406 49.8034 15.4137C52.0926 14.2868 54.7432 13.7269 57.7482 13.7269C59.8886 13.7269 61.7313 13.9395 63.2834 14.3648C64.8497 14.7688 66.2175 15.2578 67.3798 15.8318L64.8851 22.3663C63.5527 21.8277 62.3195 21.3954 61.1785 21.0623C60.0374 20.715 58.8893 20.5378 57.7482 20.5378C56.2741 20.5378 55.0409 20.8851 54.0628 21.5867C53.0848 22.2671 52.3548 23.3018 51.8729 24.6909C51.3909 26.073 51.15 27.8093 51.15 29.893C51.15 31.9767 51.4051 33.6422 51.9225 34.9888C52.4399 36.3353 53.184 37.3417 54.1621 38.0079C55.1401 38.6529 56.3308 38.9789 57.7341 38.9789C59.4846 38.9789 61.0438 38.745 62.4117 38.2843C63.7795 37.8024 65.1048 37.1433 66.3947 36.2928V43.5218C65.1048 44.3369 63.7441 44.918 62.3266 45.2653C60.9233 45.6339 59.1444 45.8181 56.9828 45.8181L56.9899 45.811Z" fill="white" stroke="white" stroke-width="0.708728" stroke-linejoin="round"/>
<path d="M80.6295 2.18176V21.4521C80.6295 22.6144 80.5799 23.7767 80.4878 24.939C80.3957 26.1013 80.2964 27.2636 80.183 28.426H80.2964C80.8705 27.6109 81.4517 26.8101 82.0399 26.0163C82.6494 25.2225 83.2944 24.4571 83.9747 23.72L92.6425 14.3081H102.168L89.8784 27.7385L102.919 45.2653H93.174L84.2582 32.7208L80.6295 35.6266V45.2582H72.1886V3.70942L80.6295 2.18176Z" fill="white" stroke="white" stroke-width="0.708728" stroke-linejoin="round"/>
<path d="M115.997 13.9041C118.817 13.407 121.335 13.5243 123.565 14.2537C125.792 14.9692 127.638 16.2557 129.11 18.112C130.582 19.9684 131.576 22.3839 132.098 25.3432L132.809 29.3774L113.155 32.8431C113.659 35.1722 114.682 36.8917 116.231 38.0075C117.791 39.0998 119.744 39.4391 122.089 39.0255C124.036 38.6822 125.78 38.166 127.33 37.4826C128.879 36.7992 130.434 35.9061 132.002 34.8021L133.137 41.2371C131.761 42.2499 130.273 43.0736 128.679 43.7072C127.106 44.3373 125.141 44.8637 122.803 45.276C119.745 45.815 116.938 45.7273 114.38 45.0194C111.837 44.3093 109.691 42.9103 107.937 40.8445C106.204 38.7681 105.029 35.9814 104.41 32.4707C103.791 28.96 103.859 25.8389 104.644 23.2682C105.446 20.6727 106.821 18.595 108.775 17.027C110.727 15.4451 113.141 14.4004 116.01 13.8948L115.997 13.9041ZM117.096 19.813C115.477 20.0984 114.228 20.8513 113.337 22.0807C112.465 23.2996 112.146 25.0399 112.368 27.2819L124.038 25.2243C123.799 23.9925 123.382 22.9291 122.772 22.0435C122.183 21.1541 121.414 20.5054 120.463 20.0901C119.526 19.6725 118.409 19.5816 117.096 19.813Z" fill="white" stroke="white" stroke-width="0.708728" stroke-linejoin="round"/>
<path d="M170.812 13.9037C173.632 13.4065 176.15 13.5238 178.38 14.2532C180.607 14.9687 182.453 16.2552 183.925 18.1116C185.396 19.9679 186.392 22.3834 186.913 25.3427L187.625 29.377L167.969 32.8426C168.474 35.1717 169.497 36.8912 171.046 38.007C172.606 39.0993 174.559 39.4386 176.904 39.025C178.851 38.6818 180.596 38.1655 182.145 37.4821C183.693 36.7988 185.249 35.9056 186.817 34.8016L187.953 41.2366C186.576 42.2494 185.088 43.0731 183.495 43.7067C181.922 44.3368 179.957 44.8632 177.611 45.2767C174.554 45.8157 171.753 45.7268 169.189 45.0202C166.645 44.31 164.498 42.911 162.745 40.8452C161.012 38.7688 159.837 35.9821 159.218 32.4714C158.599 28.9608 158.667 25.8397 159.452 23.269C160.247 20.6747 161.629 18.5958 163.583 17.0277C165.535 15.4459 167.949 14.4012 170.818 13.8955L170.812 13.9037ZM171.911 19.8125C170.292 20.0981 169.036 20.852 168.152 22.0803C167.28 23.2991 166.961 25.0394 167.183 27.2814L178.853 25.2238C178.615 23.992 178.197 22.9286 177.588 22.043C176.998 21.1538 176.229 20.5049 175.278 20.0896C174.341 19.672 173.217 19.5823 171.911 19.8125Z" fill="white" stroke="white" stroke-width="0.708728" stroke-linejoin="round"/>
</svg>
