<svg width="24" height="24" viewBox="0 0 24 24" fill="none" xmlns="http://www.w3.org/2000/svg">
<path d="M19.5459 17.954C19.7573 18.1654 19.876 18.452 19.876 18.7509C19.876 19.0498 19.7573 19.3364 19.5459 19.5478C19.3346 19.7591 19.0479 19.8779 18.7491 19.8779C18.4502 19.8779 18.1635 19.7591 17.9522 19.5478L12 13.5937L6.04594 19.5459C5.83459 19.7573 5.54795 19.876 5.24906 19.876C4.95018 19.876 4.66353 19.7573 4.45219 19.5459C4.24084 19.3346 4.12211 19.0479 4.12211 18.749C4.12211 18.4502 4.24084 18.1635 4.45219 17.9522L10.4063 12L4.45406 6.04592C4.24272 5.83457 4.12399 5.54793 4.12399 5.24904C4.12399 4.95016 4.24272 4.66351 4.45406 4.45217C4.66541 4.24082 4.95205 4.12209 5.25094 4.12209C5.54982 4.12209 5.83647 4.24082 6.04781 4.45217L12 10.4062L17.9541 4.45123C18.1654 4.23989 18.4521 4.12115 18.7509 4.12115C19.0498 4.12115 19.3365 4.23989 19.5478 4.45123C19.7592 4.66258 19.8779 4.94922 19.8779 5.24811C19.8779 5.54699 19.7592 5.83364 19.5478 6.04498L13.5938 12L19.5459 17.954Z" fill="#60646C"/>
</svg>
