<svg width="16" height="16" viewBox="0 0 16 16" fill="none" xmlns="http://www.w3.org/2000/svg">
<path d="M10.5306 12.4693C10.6715 12.6102 10.7507 12.8013 10.7507 13.0006C10.7507 13.1998 10.6715 13.3909 10.5306 13.5318C10.3897 13.6727 10.1986 13.7519 9.99937 13.7519C9.80011 13.7519 9.60902 13.6727 9.46812 13.5318L4.46812 8.53182C4.3982 8.46214 4.34272 8.37935 4.30487 8.28818C4.26701 8.19702 4.24753 8.09928 4.24753 8.00057C4.24753 7.90186 4.26701 7.80412 4.30487 7.71295C4.34272 7.62179 4.3982 7.539 4.46812 7.46932L9.46812 2.46932C9.60902 2.32842 9.80011 2.24927 9.99937 2.24927C10.1986 2.24927 10.3897 2.32842 10.5306 2.46932C10.6715 2.61021 10.7507 2.80131 10.7507 3.00057C10.7507 3.19983 10.6715 3.39092 10.5306 3.53182L6.06249 7.99994L10.5306 12.4693Z" fill="#60646C"/>
</svg>
