<svg width="14" height="14" viewBox="0 0 14 14" fill="none" xmlns="http://www.w3.org/2000/svg">
<path d="M12.3594 4.81689C12.3375 4.76221 12.3145 4.70752 12.291 4.65283C11.9382 3.8391 11.3672 3.13881 10.6411 2.62939H11.8125C11.9285 2.62939 12.0398 2.5833 12.1219 2.50125C12.2039 2.41921 12.25 2.30793 12.25 2.19189C12.25 2.07586 12.2039 1.96458 12.1219 1.88254C12.0398 1.80049 11.9285 1.75439 11.8125 1.75439H6.125C4.91537 1.75593 3.75055 2.21232 2.86184 3.03295C1.97314 3.85357 1.42555 4.9784 1.32781 6.18408C0.949901 6.27802 0.614119 6.49533 0.373618 6.8016C0.133118 7.10787 0.00164146 7.48561 0 7.87502C0 7.99105 0.0460936 8.10233 0.128141 8.18438C0.210188 8.26643 0.321468 8.31252 0.4375 8.31252C0.553532 8.31252 0.664812 8.26643 0.746859 8.18438C0.828906 8.10233 0.875 7.99105 0.875 7.87502C0.875102 7.71548 0.91882 7.55901 1.00142 7.42252C1.08403 7.28603 1.20238 7.17473 1.34367 7.10064C1.45257 8.08221 1.86186 9.00621 2.51562 9.74643L3.2025 11.6692C3.26322 11.8393 3.37508 11.9864 3.52274 12.0904C3.67039 12.1944 3.8466 12.2501 4.02719 12.25H4.72281C4.90331 12.25 5.0794 12.1942 5.22694 12.0903C5.37448 11.9863 5.48626 11.8392 5.54695 11.6692L5.65195 11.375H8.78555L8.89055 11.6692C8.95124 11.8392 9.06302 11.9863 9.21056 12.0903C9.3581 12.1942 9.53419 12.25 9.71469 12.25H10.4103C10.5908 12.25 10.7669 12.1942 10.9144 12.0903C11.062 11.9863 11.1738 11.8392 11.2345 11.6692L12.1209 9.18752H12.25C12.5981 9.18752 12.9319 9.04924 13.1781 8.8031C13.4242 8.55696 13.5625 8.22312 13.5625 7.87502V6.12502C13.5625 5.79582 13.4389 5.47863 13.216 5.23633C12.9932 4.99403 12.6874 4.84433 12.3594 4.81689ZM8.3125 3.93752H6.125C6.00897 3.93752 5.89769 3.89143 5.81564 3.80938C5.73359 3.72733 5.6875 3.61605 5.6875 3.50002C5.6875 3.38399 5.73359 3.27271 5.81564 3.19066C5.89769 3.10861 6.00897 3.06252 6.125 3.06252H8.3125C8.42853 3.06252 8.53981 3.10861 8.62186 3.19066C8.70391 3.27271 8.75 3.38399 8.75 3.50002C8.75 3.61605 8.70391 3.72733 8.62186 3.80938C8.53981 3.89143 8.42853 3.93752 8.3125 3.93752ZM9.84375 7.00002C9.71396 7.00002 9.58708 6.96153 9.47916 6.88942C9.37124 6.81731 9.28712 6.71482 9.23745 6.5949C9.18778 6.47499 9.17479 6.34304 9.20011 6.21574C9.22543 6.08844 9.28793 5.97151 9.37971 5.87973C9.47149 5.78795 9.58842 5.72545 9.71572 5.70013C9.84302 5.67481 9.97497 5.6878 10.0949 5.73747C10.2148 5.78714 10.3173 5.87126 10.3894 5.97918C10.4615 6.0871 10.5 6.21397 10.5 6.34377C10.5 6.51782 10.4309 6.68474 10.3078 6.80781C10.1847 6.93088 10.0178 7.00002 9.84375 7.00002Z" fill="#299764"/>
</svg>
