<svg width="27" height="9" viewBox="0 0 27 9" fill="none" xmlns="http://www.w3.org/2000/svg">
<path d="M17.667 0C18.5131 0 19.1974 0.194635 19.6288 0.370915L19.3313 2.25222L19.1335 2.1597C18.7377 1.98355 18.2153 1.80751 17.5042 1.82612C16.6407 1.82612 16.2534 2.2059 16.2445 2.57669C16.2445 2.98456 16.7129 3.25335 17.4779 3.65198C18.7381 4.27297 19.3226 5.03291 19.3139 6.02468C19.2961 7.83207 17.8021 9 15.5071 9C14.5259 8.99064 13.5808 8.77703 13.0678 8.53633L13.3739 6.58062L13.6619 6.71982C14.3729 7.04454 14.8408 7.18325 15.714 7.18325C16.3437 7.18325 17.0189 6.91421 17.0275 6.33055C17.0275 5.95052 16.7399 5.67224 15.8937 5.24589C15.0658 4.82866 13.9588 4.13364 13.9768 2.88232C13.9861 1.18629 15.5071 0 17.667 0Z" fill="#00579F"/>
<path d="M9.51281 8.87016H11.7L13.0679 0.157928H10.8808L9.51281 8.87016Z" fill="#00579F"/>
<path fill-rule="evenodd" clip-rule="evenodd" d="M25.2355 0.157928H23.5437C23.022 0.157928 22.6256 0.315361 22.4005 0.880786L19.1518 8.87004H21.4467C21.4467 8.87004 21.8245 7.79474 21.9057 7.56315H24.7139C24.7767 7.86902 24.9749 8.87004 24.9749 8.87004H27L25.2355 0.157928ZM22.5357 5.78372C22.7158 5.28322 23.4089 3.34611 23.4089 3.34611C23.4053 3.35363 23.4339 3.27192 23.4764 3.15046C23.5392 2.97121 23.6323 2.70535 23.6967 2.51202L23.8495 3.26272C23.8495 3.26272 24.2637 5.34814 24.3537 5.78372H22.5357Z" fill="#00579F"/>
<path d="M5.54397 6.09884L7.68595 0.157928H9.99873L6.56084 8.86093H4.24795L2.28597 1.24209C3.67194 1.99316 4.9139 3.50367 5.30991 4.89396L5.54397 6.09884Z" fill="#00579F"/>
<path d="M3.55498 0.157921H0.0360005L0 0.333954C2.74502 1.05694 4.56299 2.79965 5.30992 4.89432L4.54493 0.890264C4.41899 0.333831 4.03195 0.176275 3.55498 0.157921Z" fill="#FAA61A"/>
</svg>
