<svg width="25" height="11" viewBox="0 0 25 11" fill="none" xmlns="http://www.w3.org/2000/svg">
<path d="M5.83962 2.33733C5.40586 1.91511 4.82557 1.68319 4.22184 1.69508C3.11987 1.69508 2.18789 2.45032 1.85378 3.46721L1.85241 3.46613C1.67813 3.99996 1.67844 4.57492 1.85378 5.10258C2.18789 6.11352 3.11987 6.86876 4.22184 6.86876C4.7904 6.86876 5.27674 6.72007 5.65774 6.45842C6.10322 6.16108 6.40802 5.68534 6.5018 5.15608H4.22167V3.50883H8.20164C8.24853 3.79428 8.27198 4.08567 8.27198 4.37706C8.27198 5.68534 7.81478 6.78549 7.01761 7.52883C6.32009 8.18297 5.35897 8.56358 4.22184 8.56358C2.6275 8.56358 1.16798 7.65373 0.452876 6.20867V6.20271C-0.150957 4.99552 -0.15096 3.56831 0.452873 2.36112C1.16798 0.916058 2.6275 0.000258808 4.22184 0.000258808C5.27105 -0.0116347 6.27923 0.386797 7.04709 1.1123L5.83962 2.33733Z" fill="#8B8D98"/>
<path fill-rule="evenodd" clip-rule="evenodd" d="M11.53 8.05213V5.03118H13.0892C13.7281 5.03118 14.2674 4.8171 14.707 4.39488L14.8125 4.28784C15.6155 3.41367 15.5628 2.05186 14.707 1.24311C14.2791 0.814941 13.6929 0.583018 13.0892 0.594912H10.5863V8.05213H11.53ZM11.53 4.11534V1.51066H13.1129C13.4529 1.51066 13.7754 1.64149 14.0157 1.87936C14.5258 2.37889 14.5375 3.21143 14.045 3.7288C13.8047 3.98451 13.4647 4.12723 13.1129 4.11534H11.53Z" fill="#8B8D98"/>
<path fill-rule="evenodd" clip-rule="evenodd" d="M19.2146 3.34823C18.8101 2.97358 18.2592 2.78328 17.5616 2.78328C16.6648 2.78328 15.9908 3.1163 15.5453 3.77639L16.3776 4.30565C16.6824 3.8537 17.0986 3.62772 17.6261 3.62772C17.9602 3.62772 18.2826 3.7526 18.5347 3.97858C18.7808 4.19266 18.9215 4.50189 18.9215 4.82897V5.04899C18.5581 4.84681 18.1009 4.73976 17.5382 4.73976C16.8817 4.73976 16.3542 4.89438 15.9614 5.20956C15.5687 5.52473 15.3694 5.94101 15.3694 6.47027C15.3577 6.95195 15.5629 7.40985 15.9263 7.71908C16.2956 8.0521 16.7645 8.21861 17.3155 8.21861C17.9661 8.21861 18.4819 7.92722 18.8746 7.34444H18.9157V8.0521H19.8183V4.90627C19.8183 4.24618 19.619 3.72287 19.2146 3.34823ZM16.6533 7.11253C16.4598 6.96981 16.3426 6.73789 16.3426 6.48812C16.3426 6.20863 16.4716 5.9767 16.7236 5.79236C16.9816 5.60801 17.304 5.51286 17.6851 5.51286C18.2127 5.50691 18.6231 5.62585 18.9162 5.86372C18.9162 6.26809 18.7579 6.61895 18.4472 6.91629C18.1658 7.20173 17.7847 7.36229 17.3861 7.36229C17.1223 7.36824 16.8643 7.27904 16.6533 7.11253Z" fill="#8B8D98"/>
<path d="M25 2.94978L21.8465 10.294H20.8735L22.0458 7.72502L19.9767 2.94978H21.0024L22.4971 6.61298H22.5147L23.9742 2.94978H25Z" fill="#8B8D98"/>
</svg>
