<svg width="14" height="14" viewBox="0 0 14 14" fill="none" xmlns="http://www.w3.org/2000/svg">
<path d="M13.3087 5.48563C13.2537 5.31626 13.1502 5.1668 13.0109 5.05585C12.8716 4.94491 12.7028 4.8774 12.5254 4.86172L9.15681 4.57131L7.83637 1.43131C7.76762 1.26655 7.65166 1.12581 7.50309 1.02681C7.35452 0.927822 7.17998 0.875 7.00146 0.875C6.82293 0.875 6.64839 0.927822 6.49982 1.02681C6.35125 1.12581 6.23529 1.26655 6.16654 1.43131L4.85008 4.57131L1.47752 4.86342C1.29944 4.87838 1.12974 4.94559 0.989707 5.05662C0.849671 5.16764 0.745532 5.31754 0.690348 5.48751C0.635164 5.65749 0.631392 5.83997 0.679505 6.01208C0.727618 6.18419 0.825475 6.33826 0.960803 6.45498L3.51943 8.69087L2.75258 12.0112C2.71203 12.185 2.7236 12.3669 2.78584 12.5341C2.84809 12.7013 2.95824 12.8464 3.10254 12.9514C3.24683 13.0564 3.41886 13.1164 3.59712 13.1242C3.77538 13.1319 3.95196 13.0869 4.10478 12.9948L6.99749 11.2364L9.89643 12.9948C10.0492 13.0869 10.2258 13.1319 10.4041 13.1242C10.5823 13.1164 10.7544 13.0564 10.8987 12.9514C11.043 12.8464 11.1531 12.7013 11.2154 12.5341C11.2776 12.3669 11.2892 12.185 11.2486 12.0112L10.4823 8.68746L13.0404 6.45498C13.1757 6.33786 13.2734 6.18334 13.3211 6.01087C13.3689 5.8384 13.3645 5.65566 13.3087 5.48563Z" fill="url(#paint0_linear_0_814)"/>
<g opacity="0.81" filter="url(#filter0_f_0_814)">
<path d="M12.4441 5.76635L9.88608 7.99884C9.76158 8.10714 9.66896 8.24733 9.61819 8.40433C9.56742 8.56134 9.56042 8.72922 9.59794 8.88991L10.3665 12.216L7.46982 10.4576C7.32849 10.3716 7.16621 10.3261 7.00074 10.3261C6.83528 10.3261 6.673 10.3716 6.53167 10.4576L3.63896 12.216L4.40241 8.89217C4.43993 8.73149 4.43293 8.56361 4.38216 8.4066C4.33139 8.2496 4.23877 8.1094 4.11427 8.00111C6.82152 8.00111 9.88608 7.45144 12.4453 5.76465V5.76862L12.4441 5.76635Z" fill="url(#paint1_radial_0_814)" fill-opacity="0.8"/>
</g>
<g filter="url(#filter1_f_0_814)">
<path d="M5.46007 6.14715C4.17837 5.86935 1.63296 5.86402 1.63296 5.86402C3.36299 7.36012 6.43484 8.32556 9.30639 7.09909C9.30639 7.09909 6.74177 6.42495 5.46007 6.14715Z" fill="#FFE9E9"/>
</g>
<g filter="url(#filter2_f_0_814)">
<path d="M4.66905 7.82938C4.07717 7.56067 2.84453 7.29173 2.84453 7.29173C3.52613 8.19759 4.91335 8.98677 6.43289 8.69306C6.43289 8.69306 5.26094 8.09809 4.66905 7.82938Z" fill="#FF4B52"/>
</g>
<g filter="url(#filter3_f_0_814)">
<path d="M4.09778 10.0068C3.89198 10.6234 3.75249 11.8773 3.75249 11.8773C4.58268 11.1053 5.22355 9.64361 4.77363 8.16278C4.77363 8.16278 4.30357 9.39018 4.09778 10.0068Z" fill="#FF4B52"/>
</g>
<g opacity="0.81" filter="url(#filter4_f_0_814)">
<path d="M10.0903 12.3852C10.0903 12.3852 9.04239 11.6826 8.59045 11.2154C8.1385 10.7482 7.26673 9.76461 7.26673 9.76461C6.89516 8.35786 8.28021 7.38683 9.37232 7.87023C9.6682 8.01865 9.48655 8.09011 9.23544 8.29108L8.72348 9.86505C8.72348 10.844 9.89503 11.6776 10.0903 12.3852Z" fill="#FF4B52"/>
</g>
<g filter="url(#filter5_f_0_814)">
<path d="M3.55354 10.968C3.3943 11.3199 3.24498 12.0716 3.24498 12.0716C3.73261 11.6973 4.03034 10.8538 4.03034 9.83664C4.03034 9.83664 3.71277 10.6161 3.55354 10.968Z" fill="white"/>
</g>
<g filter="url(#filter6_f_0_814)">
<path d="M9.10833 11.8499C9.33387 12.0801 9.87336 12.4234 9.87336 12.4234C9.72967 11.9311 9.16364 11.4446 8.37255 11.1371C8.37255 11.1371 8.88279 11.6197 9.10833 11.8499Z" fill="white"/>
</g>
<g filter="url(#filter7_f_0_814)">
<path d="M6.66963 2.23629C6.81259 2.01987 6.98519 1.49176 6.98519 1.49176C6.61171 1.61231 6.32747 2.16006 6.23449 2.94427C6.23449 2.94427 6.52668 2.45272 6.66963 2.23629Z" fill="white"/>
</g>
<g filter="url(#filter8_f_0_814)">
<path d="M12.444 5.76635C8.31596 7.23232 5.38195 7.31877 1.55497 5.76975C1.55476 5.76806 1.55476 5.76635 1.55497 5.76465L4.92639 5.47311C5.09099 5.4586 5.24851 5.39943 5.38195 5.30197C5.51539 5.20451 5.61969 5.07247 5.6836 4.92009L7.00006 1.78406L8.31596 4.92009C8.37987 5.07247 8.48417 5.20451 8.61761 5.30197C8.75105 5.39943 8.90857 5.4586 9.07317 5.47311L12.4452 5.76465V5.76862L12.444 5.76635Z" fill="url(#paint2_linear_0_814)" fill-opacity="0.15"/>
</g>
<path d="M6.99911 10.7889L4.29672 12.8802L6.99911 11.2328L9.7442 12.8976L6.99911 10.7889Z" fill="url(#paint3_linear_0_814)" fill-opacity="0.5"/>
<path d="M10.0549 8.53133L11.0694 11.2459L10.4802 8.68756L12.8962 6.57559L10.0549 8.53133Z" fill="url(#paint4_linear_0_814)" fill-opacity="0.5"/>
<g filter="url(#filter9_f_0_814)">
<path d="M8.48087 6.16587C6.04367 6.35716 7.10397 2.86253 6.77173 2.95184C6.43948 3.04115 5.96918 5.10762 5.52232 5.36299C5.07546 5.61836 3.25632 5.76199 3.25632 5.76199C3.2443 6.55811 5.27783 7.37826 8.48087 6.16587Z" fill="url(#paint5_radial_0_814)"/>
</g>
<defs>
<filter id="filter0_f_0_814" x="3.05563" y="5.18132" width="9.97297" height="7.61796" filterUnits="userSpaceOnUse" color-interpolation-filters="sRGB">
<feFlood flood-opacity="0" result="BackgroundImageFix"/>
<feBlend mode="normal" in="SourceGraphic" in2="BackgroundImageFix" result="shape"/>
<feGaussianBlur stdDeviation="0.291667" result="effect1_foregroundBlur_0_814"/>
</filter>
<filter id="filter1_f_0_814" x="1.04963" y="5.28068" width="8.84008" height="2.96025" filterUnits="userSpaceOnUse" color-interpolation-filters="sRGB">
<feFlood flood-opacity="0" result="BackgroundImageFix"/>
<feBlend mode="normal" in="SourceGraphic" in2="BackgroundImageFix" result="shape"/>
<feGaussianBlur stdDeviation="0.291667" result="effect1_foregroundBlur_0_814"/>
</filter>
<filter id="filter2_f_0_814" x="2.26119" y="6.70841" width="4.75503" height="2.63041" filterUnits="userSpaceOnUse" color-interpolation-filters="sRGB">
<feFlood flood-opacity="0" result="BackgroundImageFix"/>
<feBlend mode="normal" in="SourceGraphic" in2="BackgroundImageFix" result="shape"/>
<feGaussianBlur stdDeviation="0.291667" result="effect1_foregroundBlur_0_814"/>
</filter>
<filter id="filter3_f_0_814" x="3.16915" y="7.57951" width="2.33613" height="4.88102" filterUnits="userSpaceOnUse" color-interpolation-filters="sRGB">
<feFlood flood-opacity="0" result="BackgroundImageFix"/>
<feBlend mode="normal" in="SourceGraphic" in2="BackgroundImageFix" result="shape"/>
<feGaussianBlur stdDeviation="0.291667" result="effect1_foregroundBlur_0_814"/>
</filter>
<filter id="filter4_f_0_814" x="6.62176" y="7.1613" width="4.05184" height="5.80729" filterUnits="userSpaceOnUse" color-interpolation-filters="sRGB">
<feFlood flood-opacity="0" result="BackgroundImageFix"/>
<feBlend mode="normal" in="SourceGraphic" in2="BackgroundImageFix" result="shape"/>
<feGaussianBlur stdDeviation="0.291667" result="effect1_foregroundBlur_0_814"/>
</filter>
<filter id="filter5_f_0_814" x="2.95331" y="9.545" width="1.36869" height="2.81832" filterUnits="userSpaceOnUse" color-interpolation-filters="sRGB">
<feFlood flood-opacity="0" result="BackgroundImageFix"/>
<feBlend mode="normal" in="SourceGraphic" in2="BackgroundImageFix" result="shape"/>
<feGaussianBlur stdDeviation="0.145833" result="effect1_foregroundBlur_0_814"/>
</filter>
<filter id="filter6_f_0_814" x="8.08089" y="10.8454" width="2.08414" height="1.86971" filterUnits="userSpaceOnUse" color-interpolation-filters="sRGB">
<feFlood flood-opacity="0" result="BackgroundImageFix"/>
<feBlend mode="normal" in="SourceGraphic" in2="BackgroundImageFix" result="shape"/>
<feGaussianBlur stdDeviation="0.145833" result="effect1_foregroundBlur_0_814"/>
</filter>
<filter id="filter7_f_0_814" x="6.08865" y="1.34587" width="1.04237" height="1.74418" filterUnits="userSpaceOnUse" color-interpolation-filters="sRGB">
<feFlood flood-opacity="0" result="BackgroundImageFix"/>
<feBlend mode="normal" in="SourceGraphic" in2="BackgroundImageFix" result="shape"/>
<feGaussianBlur stdDeviation="0.0729167" result="effect1_foregroundBlur_0_814"/>
</filter>
<filter id="filter8_f_0_814" x="0.388143" y="0.617391" width="13.2237" height="7.4482" filterUnits="userSpaceOnUse" color-interpolation-filters="sRGB">
<feFlood flood-opacity="0" result="BackgroundImageFix"/>
<feBlend mode="normal" in="SourceGraphic" in2="BackgroundImageFix" result="shape"/>
<feGaussianBlur stdDeviation="0.583333" result="effect1_foregroundBlur_0_814"/>
</filter>
<filter id="filter9_f_0_814" x="2.67292" y="2.36686" width="6.39128" height="4.9976" filterUnits="userSpaceOnUse" color-interpolation-filters="sRGB">
<feFlood flood-opacity="0" result="BackgroundImageFix"/>
<feBlend mode="normal" in="SourceGraphic" in2="BackgroundImageFix" result="shape"/>
<feGaussianBlur stdDeviation="0.291667" result="effect1_foregroundBlur_0_814"/>
</filter>
<linearGradient id="paint0_linear_0_814" x1="7" y1="2.27277" x2="7" y2="13.6159" gradientUnits="userSpaceOnUse">
<stop stop-color="#FFBEEA"/>
<stop offset="1" stop-color="#FF7C44"/>
</linearGradient>
<radialGradient id="paint1_radial_0_814" cx="0" cy="0" r="1" gradientUnits="userSpaceOnUse" gradientTransform="translate(7.89832 8.03797) rotate(62.1049) scale(4.14419 7.26535)">
<stop stop-color="#FF000A"/>
<stop offset="1" stop-color="#FF67A3"/>
</radialGradient>
<linearGradient id="paint2_linear_0_814" x1="6.99998" y1="3.60894" x2="6.99998" y2="6.89892" gradientUnits="userSpaceOnUse">
<stop stop-color="white" stop-opacity="0"/>
<stop offset="1" stop-color="white"/>
</linearGradient>
<linearGradient id="paint3_linear_0_814" x1="6.99357" y1="12.0878" x2="6.99357" y2="10.7346" gradientUnits="userSpaceOnUse">
<stop offset="0.484375" stop-color="#BD080F"/>
<stop offset="1" stop-color="#810000" stop-opacity="0"/>
</linearGradient>
<linearGradient id="paint4_linear_0_814" x1="10.0374" y1="8.49881" x2="11.5968" y2="9.09603" gradientUnits="userSpaceOnUse">
<stop stop-color="#FF7277"/>
<stop offset="1" stop-color="#FC000A" stop-opacity="0.04"/>
</linearGradient>
<radialGradient id="paint5_radial_0_814" cx="0" cy="0" r="1" gradientUnits="userSpaceOnUse" gradientTransform="translate(5.54565 5.47129) rotate(48.1062) scale(1.96315 5.31516)">
<stop stop-color="#FFF0D9"/>
<stop offset="1" stop-color="#FBEBD4"/>
</radialGradient>
</defs>
</svg>
