<svg width="14" height="14" viewBox="0 0 14 14" fill="none" xmlns="http://www.w3.org/2000/svg">
<path d="M12.6875 3.5H11.375V3.0625C11.375 2.83044 11.2828 2.60788 11.1187 2.44378C10.9546 2.27969 10.7321 2.1875 10.5 2.1875H3.5C3.26794 2.1875 3.04538 2.27969 2.88128 2.44378C2.71719 2.60788 2.625 2.83044 2.625 3.0625V3.5H1.3125C1.08044 3.5 0.857876 3.59219 0.693782 3.75628C0.529687 3.92038 0.4375 4.14294 0.4375 4.375V5.25C0.4375 5.83016 0.667968 6.38656 1.0782 6.7968C1.28133 6.99992 1.52248 7.16105 1.78788 7.27099C2.05328 7.38092 2.33773 7.4375 2.625 7.4375H2.82461C3.08232 8.25421 3.5737 8.97751 4.23801 9.51799C4.90232 10.0585 5.71044 10.3925 6.5625 10.4787V11.8125H5.25C5.13397 11.8125 5.02269 11.8586 4.94064 11.9406C4.85859 12.0227 4.8125 12.134 4.8125 12.25C4.8125 12.366 4.85859 12.4773 4.94064 12.5594C5.02269 12.6414 5.13397 12.6875 5.25 12.6875H8.75C8.86603 12.6875 8.97731 12.6414 9.05936 12.5594C9.14141 12.4773 9.1875 12.366 9.1875 12.25C9.1875 12.134 9.14141 12.0227 9.05936 11.9406C8.97731 11.8586 8.86603 11.8125 8.75 11.8125H7.4375V10.477C9.18422 10.3004 10.6334 9.07484 11.1606 7.4375H11.375C11.9552 7.4375 12.5116 7.20703 12.9218 6.7968C13.332 6.38656 13.5625 5.83016 13.5625 5.25V4.375C13.5625 4.14294 13.4703 3.92038 13.3062 3.75628C13.1421 3.59219 12.9196 3.5 12.6875 3.5ZM2.625 6.5625C2.2769 6.5625 1.94306 6.42422 1.69692 6.17808C1.45078 5.93194 1.3125 5.5981 1.3125 5.25V4.375H2.625V6.125C2.625 6.27083 2.63211 6.41667 2.64633 6.5625H2.625ZM12.6875 5.25C12.6875 5.5981 12.5492 5.93194 12.3031 6.17808C12.0569 6.42422 11.7231 6.5625 11.375 6.5625H11.3477C11.3656 6.40088 11.3747 6.2384 11.375 6.07578V4.375H12.6875V5.25Z" fill="#1C2024"/>
</svg>
