<svg width="158" height="100" viewBox="0 0 158 100" fill="none" xmlns="http://www.w3.org/2000/svg">
<path d="M104.908 62.2212L107.886 61.696L109.309 67.5873L105.586 68.2438L104.908 62.2212Z" fill="black"/>
<rect x="72.4503" y="74.0865" width="71.0741" height="27.2199" rx="10.7143" transform="rotate(-10 72.4503 74.0865)" fill="black"/>
<path d="M100.829 69.0827L107.447 67.9157L104.469 72.1698C103.556 73.473 101.524 73.0224 101.247 71.4557L100.829 69.0827Z" fill="white"/>
<path d="M114.066 66.7487L107.447 67.9157L111.702 70.8945C113.005 71.807 114.761 70.6883 114.484 69.1216L114.066 66.7487Z" fill="white"/>
<path d="M129.499 82.4225C129.707 82.3859 129.906 82.3293 130.094 82.2533C130.287 82.1765 130.475 82.0887 130.659 81.992L130.91 83.4108C130.721 83.5381 130.482 83.6578 130.187 83.7708C129.897 83.8862 129.575 83.976 129.217 84.0391C128.802 84.1124 128.414 84.1114 128.058 84.0373C127.705 83.9578 127.404 83.7683 127.154 83.4694C126.907 83.1649 126.73 82.7128 126.625 82.1129L126.03 78.7426L125.15 79.076L124.897 77.6443L125.78 77.3221L125.516 75.8249L127.36 75.1533L127.625 76.6521L129.519 75.9619L129.771 77.3935L127.877 78.0837L128.528 81.7757C128.575 82.0428 128.686 82.2295 128.859 82.3358C129.036 82.4383 129.25 82.4665 129.499 82.4225Z" fill="white" stroke="white" stroke-width="0.892857" stroke-linejoin="round"/>
<ellipse cx="79.9454" cy="40.1347" rx="12.0977" ry="15.1222" transform="rotate(-10 79.9454 40.1347)" fill="black"/>
<path d="M125.329 24.4546C122.791 10.0611 110.557 0.187387 98.0021 2.40107C85.4477 4.61476 77.3277 18.0775 79.8657 32.471" stroke="black" stroke-width="3.57143"/>
<circle cx="101.867" cy="36.2693" r="26.4638" transform="rotate(-10 101.867 36.2693)" fill="#08E8DE"/>
<ellipse cx="127.929" cy="31.6739" rx="12.0977" ry="15.1222" transform="rotate(-10 127.929 31.6739)" fill="black"/>
<path d="M108.533 45.3144C107.381 42.9506 104.53 41.969 102.166 43.1219C99.8023 44.2748 98.8206 47.1256 99.9735 49.4893C101.126 51.8531 103.977 52.8347 106.341 51.6818C108.705 50.5289 109.686 47.6781 108.533 45.3144ZM121.444 38.0241L103.862 46.5993L104.645 48.2043L122.227 39.6291L121.444 38.0241Z" fill="black"/>
<path d="M87.3322 26.8032C87.3322 26.8032 87.6101 40.4559 95.527 39.06C103.444 37.664 99.3797 24.6789 99.3797 24.6789" stroke="black" stroke-width="3.57143"/>
<circle cx="48.6216" cy="33.1226" r="11.5512" transform="rotate(37.6789 48.6216 33.1226)" fill="#FF7DF3"/>
<path d="M35.6843 24.1403C35.3646 23.4776 35.9386 22.7344 36.6606 22.8762L42.1497 23.9545L38.1151 29.1786L35.6843 24.1403Z" fill="#FF7DF3"/>
<path d="M8.06672 69.0056L21.3082 55.4845L66.6801 51.515C70.61 51.1711 74.0745 54.0782 74.4183 58.0081L76.3218 79.7651C76.6656 83.695 73.7586 87.1595 69.8287 87.5033L17.2576 92.1027C13.3277 92.4465 9.8632 89.5394 9.51938 85.6095L8.06672 69.0056Z" fill="#FFF000"/>
<path d="M19.2621 55.6635L19.7129 60.8166C20.0568 64.7465 17.1497 68.211 13.2198 68.5548L8.06672 69.0056L19.2621 55.6635Z" fill="#FFAA1D"/>
<path d="M79.5046 62.0656C80.1889 62.3361 80.2707 63.2716 79.6438 63.6567L74.9083 66.5661L74.3358 60.0228L79.5046 62.0656Z" fill="#FFF000"/>
</svg>
